<?xml version="1.0" encoding="UTF-8" standalone="no"?>
<!-- Created with Inkscape (http://www.inkscape.org/) -->

<svg
   width="512"
   height="512"
   viewBox="0 0 512 512"
   version="1.1"
   id="svg5"
   inkscape:version="1.1.2 (1:1.1+202202050950+0a00cf5339)"
   sodipodi:docname="DREAM.svg"
   inkscape:export-filename="/home/cristobal/Bureau/Design/DREAM/Logo6.png"
   inkscape:export-xdpi="300"
   inkscape:export-ydpi="300"
   xmlns:inkscape="http://www.inkscape.org/namespaces/inkscape"
   xmlns:sodipodi="http://sodipodi.sourceforge.net/DTD/sodipodi-0.dtd"
   xmlns="http://www.w3.org/2000/svg"
   xmlns:svg="http://www.w3.org/2000/svg">
  <sodipodi:namedview
     id="namedview7"
     pagecolor="#1d2021"
     bordercolor="#999999"
     borderopacity="1"
     inkscape:pageshadow="0"
     inkscape:pageopacity="1"
     inkscape:pagecheckerboard="false"
     inkscape:document-units="px"
     showgrid="false"
     inkscape:zoom="0.48475484"
     inkscape:cx="318.71781"
     inkscape:cy="207.32129"
     inkscape:window-width="1366"
     inkscape:window-height="704"
     inkscape:window-x="0"
     inkscape:window-y="27"
     inkscape:window-maximized="1"
     inkscape:current-layer="layer1" />
  <defs
     id="defs2" />
  <g
     inkscape:label="Calque 1"
     inkscape:groupmode="layer"
     id="layer1"
     style="display:inline">
    <rect
       style="fill:#ffffff;fill-opacity:1;stroke-width:0.599703;stroke-linejoin:round"
       id="rect66294"
       width="512"
       height="512"
       x="0"
      y="0" />       
    <text
       xml:space="preserve"
       style="font-weight:bold;font-size:70.9988px;line-height:1.25;font-family:aakar;-inkscape-font-specification:'aakar Bold';text-align:start;letter-spacing:14.7914px;text-anchor:start;display:none;stroke-width:0.986095"
       x="100.17592"
       y="405.30908"
       id="text7829"><tspan
         sodipodi:role="line"
         id="tspan7827"
         x="0"
         y="0"
         style="font-style:normal;font-variant:normal;font-weight:bold;font-stretch:normal;font-family:Loma;-inkscape-font-specification:'Loma Bold';stroke-width:0.986095">DREAM</tspan></text>
    <g
       aria-label="DREAM"
       id="text47103"
       style="font-weight:bold;font-size:72px;line-height:1.25;font-family:aakar;-inkscape-font-specification:'aakar Bold';letter-spacing:15px;display:inline;fill:#1b64ff;stroke-width:0.670894"
       transform="matrix(0.98609455,0,0,0.98609455,3.5597952,127.73501)">
      <path
         d="m 146.49414,255.71875 q 0,5.97656 -1.37109,10.58203 -1.3711,4.57031 -3.6211,7.41797 -2.21484,2.8125 -5.41406,4.60547 -3.19922,1.79297 -6.50391,2.49609 -3.26953,0.66797 -7.10156,0.66797 h -18.59765 v -50.97656 h 17.7539 q 4.1836,0 7.62891,0.70312 3.44531,0.66797 5.97656,1.89844 2.56641,1.19531 4.5,2.98828 1.96875,1.79297 3.23438,3.90235 1.26562,2.10937 2.03906,4.71093 0.80859,2.60157 1.125,5.27344 0.35156,2.63672 0.35156,5.73047 z m -24.78516,18.03516 q 7.66407,0 11.98829,-4.88672 4.35937,-4.92188 4.35937,-13.25391 0,-8.33203 -4.32422,-12.83203 -4.28906,-4.53516 -12.19922,-4.53516 h -9.21093 v 35.50782 z"
         style="font-family:Loma;-inkscape-font-specification:'Loma Bold'"
         id="path63463" />
      <path
         d="m 209.86914,245.41797 q 0,3.41015 -1.05469,6.15234 -1.05468,2.74219 -2.46093,4.25391 -1.40625,1.51172 -3.33985,2.63672 -1.89844,1.08984 -3.1289,1.47656 -1.19532,0.38672 -2.42579,0.59766 l 16.27735,20.95312 H 202.66211 L 188.2832,261.09766 h -9.3164 v 20.39062 h -8.4375 v -50.97656 h 19.4414 q 5.51953,0 9.42188,1.05469 3.9375,1.05468 6.1875,3.09375 2.28515,2.0039 3.26953,4.64062 1.01953,2.63672 1.01953,6.11719 z m -8.4375,0 q 0,-3.90235 -3.19922,-5.51953 -3.16406,-1.65235 -9.10547,-1.65235 H 178.9668 v 15.11719 h 10.30078 q 6.53906,0 9.35156,-2.07422 2.8125,-2.10937 2.8125,-5.87109 z"
         style="font-family:Loma;-inkscape-font-specification:'Loma Bold'"
         id="path63465" />
      <path
         id="path63467"
         style="font-family:Loma;-inkscape-font-specification:'Loma Bold'"
         d="m 235.06445,230.51172 v 7.73437 h 37.26563 v -7.73437 z m 8.4375,21.23437 v 7.73438 h 21.76172 v -7.73438 z m -8.4375,22.00782 v 7.73437 h 37.26563 v -7.73437 z"
         sodipodi:nodetypes="ccccccccccccccc" />
      <path
         d="m 308.74023,258.53125 h 11.67188 l -5.83594,-14.66016 z m 9.42188,-28.01953 20.35547,50.97656 h -8.92969 l -6.08203,-15.22266 h -17.85938 l -6.08203,15.22266 h -8.92968 l 20.35546,-50.97656 z"
         style="font-family:Loma;-inkscape-font-specification:'Loma Bold'"
         id="path63469" />
      <path
         d="m 358.9668,281.48828 v -50.97656 h 8.22656 l 16.34766,43.875 16.34765,-43.875 h 8.22656 v 50.97656 h -8.4375 v -26.78906 l -9.98437,26.78906 h -12.30469 l -9.98437,-26.78906 v 26.78906 z"
         style="font-family:Loma;-inkscape-font-specification:'Loma Bold'"
         id="path63471" />
    </g>
    <g
       id="g66035"
       style="display:inline">
      <rect
         style="fill:#1b64ff;fill-opacity:1;stroke-width:0.738845;stroke-linejoin:round"
         id="rect65933"
         width="150"
         height="200"
         x="181"
         y="107.50557" />
      <path
         id="path64552"
         style="font-family:Loma;-inkscape-font-specification:'Loma Bold';fill:#ffffff;stroke-width:2.94715"
         d="m 201,132.50557 v 22.75861 h 110 v -22.75861 z m 24.90566,62.48274 v 22.75864 h 64.23585 V 194.98831 Z M 201,259.74696 v 22.75861 h 110 v -22.75861 z"
         sodipodi:nodetypes="ccccccccccccccc" />
    </g>
  </g>
  <g
     inkscape:groupmode="layer"
     id="layer2"
     inkscape:label="Calque 2"
     style="display:none">
    <rect
       style="fill:#ffffff;fill-opacity:1;stroke-width:0.473615;stroke-linejoin:round"
       id="rect66395"
       width="545"
       height="300"
       x="512"
       y="106.00001" />
    <g
       id="g66444"
       transform="translate(16.163818)">
      <g
         aria-label="DREAM"
         id="g66387"
         style="font-weight:bold;font-size:72px;line-height:1.25;font-family:aakar;-inkscape-font-specification:'aakar Bold';letter-spacing:15px;display:inline;fill:#1b64ff;stroke-width:0.670894"
         transform="matrix(0.98609455,0,0,0.98609455,563.39598,3.5597952)">
        <path
           d="m 146.49414,255.71875 q 0,5.97656 -1.37109,10.58203 -1.3711,4.57031 -3.6211,7.41797 -2.21484,2.8125 -5.41406,4.60547 -3.19922,1.79297 -6.50391,2.49609 -3.26953,0.66797 -7.10156,0.66797 h -18.59765 v -50.97656 h 17.7539 q 4.1836,0 7.62891,0.70312 3.44531,0.66797 5.97656,1.89844 2.56641,1.19531 4.5,2.98828 1.96875,1.79297 3.23438,3.90235 1.26562,2.10937 2.03906,4.71093 0.80859,2.60157 1.125,5.27344 0.35156,2.63672 0.35156,5.73047 z m -24.78516,18.03516 q 7.66407,0 11.98829,-4.88672 4.35937,-4.92188 4.35937,-13.25391 0,-8.33203 -4.32422,-12.83203 -4.28906,-4.53516 -12.19922,-4.53516 h -9.21093 v 35.50782 z"
           style="font-family:Loma;-inkscape-font-specification:'Loma Bold'"
           id="path66377" />
        <path
           d="m 209.86914,245.41797 q 0,3.41015 -1.05469,6.15234 -1.05468,2.74219 -2.46093,4.25391 -1.40625,1.51172 -3.33985,2.63672 -1.89844,1.08984 -3.1289,1.47656 -1.19532,0.38672 -2.42579,0.59766 l 16.27735,20.95312 H 202.66211 L 188.2832,261.09766 h -9.3164 v 20.39062 h -8.4375 v -50.97656 h 19.4414 q 5.51953,0 9.42188,1.05469 3.9375,1.05468 6.1875,3.09375 2.28515,2.0039 3.26953,4.64062 1.01953,2.63672 1.01953,6.11719 z m -8.4375,0 q 0,-3.90235 -3.19922,-5.51953 -3.16406,-1.65235 -9.10547,-1.65235 H 178.9668 v 15.11719 h 10.30078 q 6.53906,0 9.35156,-2.07422 2.8125,-2.10937 2.8125,-5.87109 z"
           style="font-family:Loma;-inkscape-font-specification:'Loma Bold'"
           id="path66379" />
        <path
           id="path66381"
           style="font-family:Loma;-inkscape-font-specification:'Loma Bold'"
           d="m 235.06445,230.51172 v 7.73437 h 37.26563 v -7.73437 z m 8.4375,21.23437 v 7.73438 h 21.76172 v -7.73438 z m -8.4375,22.00782 v 7.73437 h 37.26563 v -7.73437 z"
           sodipodi:nodetypes="ccccccccccccccc" />
        <path
           d="m 308.74023,258.53125 h 11.67188 l -5.83594,-14.66016 z m 9.42188,-28.01953 20.35547,50.97656 h -8.92969 l -6.08203,-15.22266 h -17.85938 l -6.08203,15.22266 h -8.92968 l 20.35546,-50.97656 z"
           style="font-family:Loma;-inkscape-font-specification:'Loma Bold'"
           id="path66383" />
        <path
           d="m 358.9668,281.48828 v -50.97656 h 8.22656 l 16.34766,43.875 16.34765,-43.875 h 8.22656 v 50.97656 h -8.4375 v -26.78906 l -9.98437,26.78906 h -12.30469 l -9.98437,-26.78906 v 26.78906 z"
           style="font-family:Loma;-inkscape-font-specification:'Loma Bold'"
           id="path66385" />
      </g>
      <g
         id="g66393"
         style="display:inline"
         transform="matrix(0.5,0,0,0.5,480.33618,152.24722)">
        <rect
           style="fill:#1b64ff;fill-opacity:1;stroke-width:0.738845;stroke-linejoin:round"
           id="rect66389"
           width="150"
           height="200"
           x="181"
           y="107.50557" />
        <path
           id="path66391"
           style="font-family:Loma;-inkscape-font-specification:'Loma Bold';fill:#ffffff;stroke-width:2.94715"
           d="m 201,132.50557 v 22.75861 h 110 v -22.75861 z m 24.90566,62.48274 v 22.75864 h 64.23585 V 194.98831 Z M 201,259.74696 v 22.75861 h 110 v -22.75861 z"
           sodipodi:nodetypes="ccccccccccccccc" />
      </g>
    </g>
  </g>
  <g
     inkscape:groupmode="layer"
     id="layer3"
     inkscape:label="Calque 3"
     style="display:none">
    <rect
       style="display:inline;fill:#ffffff;fill-opacity:1;stroke-width:0.599703;stroke-linejoin:round"
       id="rect66677"
       width="512"
       height="512"
       x="-512"
       y="0" />
    <g
       id="g66672"
       style="display:inline"
       transform="matrix(1.25,0,0,1.25,-576,-3.3819618)">
      <rect
         style="fill:#1b64ff;fill-opacity:1;stroke-width:0.738845;stroke-linejoin:round"
         id="rect66668"
         width="150"
         height="200"
         x="181"
         y="107.50557" />
      <path
         id="path66670"
         style="font-family:Loma;-inkscape-font-specification:'Loma Bold';fill:#ffffff;stroke-width:2.94715"
         d="m 201,132.50557 v 22.75861 h 110 v -22.75861 z m 24.90566,62.48274 v 22.75864 h 64.23585 V 194.98831 Z M 201,259.74696 v 22.75861 h 110 v -22.75861 z"
         sodipodi:nodetypes="ccccccccccccccc" />
    </g>
  </g>
  <g
     inkscape:groupmode="layer"
     id="g66688"
     inkscape:label="Calque 4"
     style="display:none">
    <rect
       style="display:inline;fill:#1b64ff;fill-opacity:1;stroke-width:0.599703;stroke-linejoin:round"
       id="rect66680"
       width="512"
       height="512"
       x="-1024"
       y="0" />
    <g
       id="g66686"
       style="display:inline"
       transform="matrix(1.25,0,0,1.25,-1088,-3.3819618)">
      <rect
         style="fill:#ffffff;fill-opacity:1;stroke-width:0.738845;stroke-linejoin:round"
         id="rect66682"
         width="150"
         height="200"
         x="181"
         y="107.50557" />
      <path
         id="path66684"
         style="font-family:Loma;-inkscape-font-specification:'Loma Bold';fill:#1b64ff;fill-opacity:1;stroke-width:2.94715"
         d="m 201,132.50557 v 22.75861 h 110 v -22.75861 z m 24.90566,62.48274 v 22.75864 h 64.23585 V 194.98831 Z M 201,259.74696 v 22.75861 h 110 v -22.75861 z"
         sodipodi:nodetypes="ccccccccccccccc" />
    </g>
  </g>
</svg>
