<svg xmlns="http://www.w3.org/2000/svg" width="299.999" height="50.268" viewBox="0 0 299.999 50.268">
  <g id="text47103" transform="translate(-102.44 -227.305)">
    <path id="path63463" d="M144.456,252.162A36.628,36.628,0,0,1,143.1,262.6a21.822,21.822,0,0,1-3.571,7.315,17.785,17.785,0,0,1-5.339,4.541,22.8,22.8,0,0,1-6.413,2.461,35,35,0,0,1-7,.659H102.44V227.305h17.507a37.708,37.708,0,0,1,7.523.693,23.879,23.879,0,0,1,5.893,1.872,17.711,17.711,0,0,1,7.627,6.795A20.142,20.142,0,0,1,143,241.311a28.961,28.961,0,0,1,1.109,5.2,42.879,42.879,0,0,1,.347,5.651Zm-24.44,17.784q7.557,0,11.822-4.819,4.3-4.853,4.3-13.07T131.872,239.4q-4.229-4.472-12.03-4.472H110.76v35.014Z" fill="#1b64ff"/>
    <path id="path63465" d="M206.95,242a16.788,16.788,0,0,1-1.04,6.067,12.946,12.946,0,0,1-2.427,4.195,14.236,14.236,0,0,1-3.293,2.6,16.583,16.583,0,0,1-3.085,1.456,17.207,17.207,0,0,1-2.392.589l16.051,20.662h-10.92l-14.179-20.107h-9.187v20.107h-8.32V227.306h19.171a36.018,36.018,0,0,1,9.291,1.04,14.548,14.548,0,0,1,6.1,3.051,11.3,11.3,0,0,1,3.224,4.576A16.664,16.664,0,0,1,206.95,242Zm-8.32,0a5.606,5.606,0,0,0-3.155-5.443q-3.12-1.629-8.979-1.629H176.478v14.907h10.158q6.448,0,9.221-2.045A6.827,6.827,0,0,0,198.63,242Z" fill="#1b64ff"/>
    <path id="path63467" d="M231.794,227.306v7.627h36.747v-7.627Zm8.32,20.939v7.627h21.459v-7.627Zm-8.32,21.7v7.627h36.747v-7.627Z" fill="#1b64ff"/>
    <path id="path63469" d="M304.445,254.935h11.51L310.2,240.479Zm9.291-27.63,20.072,50.268H325l-6-15.011H301.395l-6,15.011h-8.805l20.072-50.268Z" fill="#1b64ff"/>
    <path id="path63471" d="M353.974,277.573V227.305h8.112l16.12,43.265,16.12-43.265h8.112v50.268h-8.32V251.156l-9.845,26.416H372.139l-9.845-26.416v26.416Z" fill="#1b64ff"/>
  </g>
</svg>
